<svg width="163" height="14" viewBox="0 0 163 14" fill="none" xmlns="http://www.w3.org/2000/svg">
<path d="M5.656 11.042C4.956 11.042 4.30733 10.916 3.71 10.664C3.11267 10.412 2.59 10.062 2.142 9.614C1.694 9.15667 1.344 8.62933 1.092 8.032C0.849333 7.43467 0.728 6.79067 0.728 6.1C0.728 5.40933 0.854 4.76533 1.106 4.168C1.358 3.57067 1.708 3.048 2.156 2.6C2.604 2.14267 3.12667 1.788 3.724 1.536C4.33067 1.284 4.984 1.158 5.684 1.158C6.384 1.158 7.03267 1.284 7.63 1.536C8.23667 1.77867 8.75933 2.124 9.198 2.572C9.646 3.02 9.99133 3.54267 10.234 4.14C10.486 4.728 10.612 5.372 10.612 6.072C10.612 6.772 10.486 7.42533 10.234 8.032C9.982 8.62933 9.62733 9.15667 9.17 9.614C8.722 10.062 8.19933 10.412 7.602 10.664C7.00467 10.916 6.356 11.042 5.656 11.042ZM5.642 10.524C6.27667 10.524 6.86 10.412 7.392 10.188C7.924 9.95467 8.39067 9.63733 8.792 9.236C9.20267 8.83467 9.52 8.36333 9.744 7.822C9.968 7.27133 10.08 6.688 10.08 6.072C10.08 5.44667 9.968 4.868 9.744 4.336C9.52933 3.804 9.22133 3.33733 8.82 2.936C8.428 2.53467 7.96133 2.22667 7.42 2.012C6.888 1.788 6.30933 1.676 5.684 1.676C5.04933 1.676 4.46133 1.788 3.92 2.012C3.37867 2.236 2.90733 2.55333 2.506 2.964C2.114 3.36533 1.806 3.832 1.582 4.364C1.358 4.896 1.246 5.47467 1.246 6.1C1.246 6.716 1.358 7.29467 1.582 7.836C1.806 8.368 2.114 8.83933 2.506 9.25C2.90733 9.65133 3.374 9.964 3.906 10.188C4.44733 10.412 5.026 10.524 5.642 10.524ZM5.782 9.012C5.222 9.012 4.72267 8.89067 4.284 8.648C3.84533 8.396 3.5 8.05067 3.248 7.612C2.996 7.17333 2.87 6.66933 2.87 6.1C2.87 5.53067 2.996 5.02667 3.248 4.588C3.5 4.14933 3.84533 3.80867 4.284 3.566C4.72267 3.314 5.222 3.188 5.782 3.188C6.258 3.188 6.68733 3.286 7.07 3.482C7.462 3.66867 7.77467 3.93 8.008 4.266L7.406 4.714C7.21 4.44333 6.972 4.24267 6.692 4.112C6.412 3.98133 6.104 3.916 5.768 3.916C5.36667 3.916 5.00733 4.00933 4.69 4.196C4.382 4.37333 4.13467 4.62533 3.948 4.952C3.76133 5.27867 3.668 5.66133 3.668 6.1C3.668 6.53867 3.76133 6.92133 3.948 7.248C4.13467 7.57467 4.382 7.83133 4.69 8.018C5.00733 8.19533 5.36667 8.284 5.768 8.284C6.104 8.284 6.412 8.21867 6.692 8.088C6.972 7.95733 7.21 7.75667 7.406 7.486L8.008 7.92C7.77467 8.26533 7.462 8.536 7.07 8.732C6.68733 8.91867 6.258 9.012 5.782 9.012ZM21.2704 10.328C20.1037 10.328 19.105 10.1647 18.2744 9.838C17.4437 9.502 16.8044 9.01667 16.3564 8.382C15.9084 7.74733 15.6844 6.982 15.6844 6.086C15.6844 5.19 15.9084 4.42933 16.3564 3.804C16.8044 3.16933 17.4437 2.684 18.2744 2.348C19.105 2.012 20.1037 1.844 21.2704 1.844C21.2797 1.844 21.303 1.844 21.3404 1.844C21.3777 1.844 21.415 1.844 21.4524 1.844C21.4897 1.844 21.513 1.844 21.5224 1.844C22.6984 1.844 23.7017 2.012 24.5324 2.348C25.363 2.684 26.0024 3.16933 26.4504 3.804C26.8984 4.42933 27.1224 5.19 27.1224 6.086C27.1224 6.982 26.8984 7.74733 26.4504 8.382C26.0117 9.01667 25.377 9.502 24.5464 9.838C23.7157 10.1647 22.7217 10.328 21.5644 10.328C21.5457 10.328 21.513 10.328 21.4664 10.328C21.429 10.328 21.387 10.328 21.3404 10.328C21.303 10.328 21.2797 10.328 21.2704 10.328ZM21.3824 9.516C21.401 9.516 21.4197 9.516 21.4384 9.516C21.457 9.516 21.471 9.516 21.4804 9.516C22.4604 9.50667 23.2957 9.37133 23.9864 9.11C24.6864 8.83933 25.2184 8.452 25.5824 7.948C25.9464 7.43467 26.1284 6.814 26.1284 6.086C26.1284 5.34867 25.9417 4.728 25.5684 4.224C25.2044 3.72 24.677 3.33733 23.9864 3.076C23.305 2.80533 22.479 2.67 21.5084 2.67C21.499 2.67 21.4804 2.67 21.4524 2.67C21.4244 2.67 21.401 2.67 21.3824 2.67C20.393 2.67 19.5484 2.80067 18.8484 3.062C18.1484 3.32333 17.6117 3.71067 17.2384 4.224C16.865 4.728 16.6784 5.34867 16.6784 6.086C16.6784 6.83267 16.865 7.46267 17.2384 7.976C17.621 8.48 18.1624 8.86267 18.8624 9.124C19.5717 9.38533 20.4117 9.516 21.3824 9.516ZM20.9204 11.336V0.863999H21.8864V11.336H20.9204ZM32.3863 11.07C31.6209 11.07 30.9489 10.9113 30.3703 10.594C29.7916 10.2673 29.3389 9.824 29.0123 9.264C28.6856 8.69467 28.5223 8.046 28.5223 7.318C28.5223 6.59 28.6763 5.946 28.9843 5.386C29.3016 4.826 29.7309 4.38733 30.2723 4.07C30.8229 3.74333 31.4389 3.58 32.1203 3.58C32.8109 3.58 33.4223 3.73867 33.9543 4.056C34.4956 4.364 34.9203 4.80267 35.2283 5.372C35.5363 5.932 35.6903 6.58067 35.6903 7.318C35.6903 7.36467 35.6856 7.416 35.6763 7.472C35.6763 7.51867 35.6763 7.57 35.6763 7.626H29.2783V6.884H35.1443L34.7523 7.178C34.7523 6.646 34.6356 6.17467 34.4023 5.764C34.1783 5.344 33.8703 5.01733 33.4783 4.784C33.0863 4.55067 32.6336 4.434 32.1203 4.434C31.6163 4.434 31.1636 4.55067 30.7623 4.784C30.3609 5.01733 30.0483 5.344 29.8243 5.764C29.6003 6.184 29.4883 6.66467 29.4883 7.206V7.36C29.4883 7.92 29.6096 8.41467 29.8523 8.844C30.1043 9.264 30.4496 9.59533 30.8883 9.838C31.3363 10.0713 31.8449 10.188 32.4143 10.188C32.8623 10.188 33.2776 10.1087 33.6603 9.95C34.0523 9.79133 34.3883 9.54867 34.6683 9.222L35.2283 9.866C34.9016 10.258 34.4909 10.5567 33.9963 10.762C33.5109 10.9673 32.9743 11.07 32.3863 11.07ZM42.7802 10.524V4.518H39.2382L39.1542 6.156C39.1355 6.65067 39.1028 7.136 39.0562 7.612C39.0188 8.088 38.9488 8.52667 38.8462 8.928C38.7528 9.32 38.6175 9.642 38.4402 9.894C38.2628 10.1367 38.0342 10.2767 37.7542 10.314L36.7602 10.132C37.0495 10.1413 37.2875 10.0387 37.4742 9.824C37.6608 9.6 37.8055 9.29667 37.9082 8.914C38.0108 8.53133 38.0855 8.09733 38.1322 7.612C38.1788 7.11733 38.2162 6.61333 38.2442 6.1L38.3422 3.65H43.7742V10.524H42.7802ZM36.4522 12.778V10.132H44.9222V12.778H43.9842V11H37.3902V12.778H36.4522ZM49.8833 11.07C49.174 11.07 48.5346 10.9113 47.9653 10.594C47.4053 10.2673 46.962 9.824 46.6353 9.264C46.3086 8.69467 46.1453 8.046 46.1453 7.318C46.1453 6.58067 46.3086 5.932 46.6353 5.372C46.962 4.812 47.4053 4.37333 47.9653 4.056C48.5253 3.73867 49.1646 3.58 49.8833 3.58C50.6113 3.58 51.2553 3.73867 51.8153 4.056C52.3846 4.37333 52.828 4.812 53.1453 5.372C53.472 5.932 53.6353 6.58067 53.6353 7.318C53.6353 8.046 53.472 8.69467 53.1453 9.264C52.828 9.824 52.3846 10.2673 51.8153 10.594C51.246 10.9113 50.602 11.07 49.8833 11.07ZM49.8833 10.188C50.4153 10.188 50.8866 10.0713 51.2973 9.838C51.708 9.59533 52.03 9.25933 52.2633 8.83C52.506 8.39133 52.6273 7.88733 52.6273 7.318C52.6273 6.73933 52.506 6.23533 52.2633 5.806C52.03 5.37667 51.708 5.04533 51.2973 4.812C50.8866 4.56933 50.42 4.448 49.8973 4.448C49.3746 4.448 48.908 4.56933 48.4973 4.812C48.0866 5.04533 47.76 5.37667 47.5173 5.806C47.2746 6.23533 47.1533 6.73933 47.1533 7.318C47.1533 7.88733 47.2746 8.39133 47.5173 8.83C47.76 9.25933 48.0866 9.59533 48.4973 9.838C48.908 10.0713 49.37 10.188 49.8833 10.188ZM59.5537 11.07C58.919 11.07 58.345 10.9253 57.8317 10.636C57.3184 10.3373 56.9077 9.91267 56.5997 9.362C56.301 8.802 56.1517 8.12067 56.1517 7.318C56.1517 6.51533 56.301 5.83867 56.5997 5.288C56.8984 4.728 57.3044 4.30333 57.8177 4.014C58.331 3.72467 58.9097 3.58 59.5537 3.58C60.2537 3.58 60.879 3.73867 61.4297 4.056C61.9897 4.364 62.4284 4.80267 62.7457 5.372C63.063 5.932 63.2217 6.58067 63.2217 7.318C63.2217 8.06467 63.063 8.718 62.7457 9.278C62.4284 9.838 61.9897 10.2767 61.4297 10.594C60.879 10.9113 60.2537 11.07 59.5537 11.07ZM55.7597 13.716V3.65H56.7117V5.862L56.6137 7.332L56.7537 8.816V13.716H55.7597ZM59.4837 10.188C60.0064 10.188 60.473 10.0713 60.8837 9.838C61.2944 9.59533 61.621 9.25933 61.8637 8.83C62.1064 8.39133 62.2277 7.88733 62.2277 7.318C62.2277 6.74867 62.1064 6.24933 61.8637 5.82C61.621 5.39067 61.2944 5.05467 60.8837 4.812C60.473 4.56933 60.0064 4.448 59.4837 4.448C58.961 4.448 58.4897 4.56933 58.0697 4.812C57.659 5.05467 57.3324 5.39067 57.0897 5.82C56.8564 6.24933 56.7397 6.74867 56.7397 7.318C56.7397 7.88733 56.8564 8.39133 57.0897 8.83C57.3324 9.25933 57.659 9.59533 58.0697 9.838C58.4897 10.0713 58.961 10.188 59.4837 10.188ZM68.3814 11.07C67.672 11.07 67.0327 10.9113 66.4634 10.594C65.9034 10.2673 65.46 9.824 65.1334 9.264C64.8067 8.69467 64.6434 8.046 64.6434 7.318C64.6434 6.58067 64.8067 5.932 65.1334 5.372C65.46 4.812 65.9034 4.37333 66.4634 4.056C67.0234 3.73867 67.6627 3.58 68.3814 3.58C69.1094 3.58 69.7534 3.73867 70.3134 4.056C70.8827 4.37333 71.326 4.812 71.6434 5.372C71.97 5.932 72.1334 6.58067 72.1334 7.318C72.1334 8.046 71.97 8.69467 71.6434 9.264C71.326 9.824 70.8827 10.2673 70.3134 10.594C69.744 10.9113 69.1 11.07 68.3814 11.07ZM68.3814 10.188C68.9134 10.188 69.3847 10.0713 69.7954 9.838C70.206 9.59533 70.528 9.25933 70.7614 8.83C71.004 8.39133 71.1254 7.88733 71.1254 7.318C71.1254 6.73933 71.004 6.23533 70.7614 5.806C70.528 5.37667 70.206 5.04533 69.7954 4.812C69.3847 4.56933 68.918 4.448 68.3954 4.448C67.8727 4.448 67.406 4.56933 66.9954 4.812C66.5847 5.04533 66.258 5.37667 66.0154 5.806C65.7727 6.23533 65.6514 6.73933 65.6514 7.318C65.6514 7.88733 65.7727 8.39133 66.0154 8.83C66.258 9.25933 66.5847 9.59533 66.9954 9.838C67.406 10.0713 67.868 10.188 68.3814 10.188ZM74.2578 11V3.65H77.5058C78.3364 3.65 78.9898 3.80867 79.4658 4.126C79.9511 4.44333 80.1938 4.91 80.1938 5.526C80.1938 6.12333 79.9651 6.58533 79.5078 6.912C79.0504 7.22933 78.4484 7.388 77.7018 7.388L77.8978 7.094C78.7751 7.094 79.4191 7.25733 79.8298 7.584C80.2404 7.91067 80.4458 8.382 80.4458 8.998C80.4458 9.63267 80.2124 10.1273 79.7458 10.482C79.2884 10.8273 78.5744 11 77.6038 11H74.2578ZM75.2238 10.216H77.5618C78.1871 10.216 78.6584 10.118 78.9758 9.922C79.3024 9.71667 79.4658 9.39 79.4658 8.942C79.4658 8.494 79.3211 8.16733 79.0318 7.962C78.7424 7.75667 78.2851 7.654 77.6598 7.654H75.2238V10.216ZM75.2238 6.912H77.4358C78.0051 6.912 78.4391 6.80467 78.7378 6.59C79.0458 6.37533 79.1998 6.06267 79.1998 5.652C79.1998 5.24133 79.0458 4.93333 78.7378 4.728C78.4391 4.52267 78.0051 4.42 77.4358 4.42H75.2238V6.912ZM85.2354 11L89.7154 1.2H90.7374L95.2174 11H94.1254L90.0094 1.802H90.4294L86.3134 11H85.2354ZM86.9994 8.382L87.3074 7.542H93.0054L93.3134 8.382H86.9994ZM97.4059 11.07C97.2005 11.07 97.0232 10.9953 96.8739 10.846C96.7339 10.6967 96.6639 10.5147 96.6639 10.3C96.6639 10.076 96.7339 9.894 96.8739 9.754C97.0232 9.614 97.2005 9.544 97.4059 9.544C97.6112 9.544 97.7839 9.614 97.9239 9.754C98.0732 9.894 98.1479 10.076 98.1479 10.3C98.1479 10.5147 98.0732 10.6967 97.9239 10.846C97.7839 10.9953 97.6112 11.07 97.4059 11.07ZM100.541 11V1.2H104.615C105.651 1.2 106.463 1.41467 107.051 1.844C107.648 2.264 107.947 2.88467 107.947 3.706C107.947 4.518 107.662 5.134 107.093 5.554C106.523 5.96467 105.777 6.17 104.853 6.17L105.091 5.82C106.183 5.82 107.013 6.03467 107.583 6.464C108.152 6.89333 108.437 7.52333 108.437 8.354C108.437 9.194 108.138 9.84733 107.541 10.314C106.953 10.7713 106.066 11 104.881 11H100.541ZM101.563 10.174H104.881C105.711 10.174 106.341 10.02 106.771 9.712C107.2 9.404 107.415 8.928 107.415 8.284C107.415 7.64933 107.2 7.18267 106.771 6.884C106.341 6.58533 105.711 6.436 104.881 6.436H101.563V10.174ZM101.563 5.638H104.559C105.315 5.638 105.893 5.48867 106.295 5.19C106.705 4.882 106.911 4.42933 106.911 3.832C106.911 3.23467 106.705 2.78667 106.295 2.488C105.893 2.18 105.315 2.026 104.559 2.026H101.563V5.638ZM110.859 11.07C110.654 11.07 110.476 10.9953 110.327 10.846C110.187 10.6967 110.117 10.5147 110.117 10.3C110.117 10.076 110.187 9.894 110.327 9.754C110.476 9.614 110.654 9.544 110.859 9.544C111.064 9.544 111.237 9.614 111.377 9.754C111.526 9.894 111.601 10.076 111.601 10.3C111.601 10.5147 111.526 10.6967 111.377 10.846C111.237 10.9953 111.064 11.07 110.859 11.07ZM116.566 8.424V7.696L121.76 1.2H122.88L117.728 7.696L117.182 7.528H125.064V8.424H116.566ZM122.096 11V8.424L122.124 7.528V5.26H123.104V11H122.096ZM128.711 11.084C128.001 11.084 127.329 10.972 126.695 10.748C126.069 10.5147 125.565 10.2067 125.183 9.824L125.673 9.026C125.99 9.35267 126.415 9.62333 126.947 9.838C127.488 10.0527 128.076 10.16 128.711 10.16C129.523 10.16 130.143 9.98267 130.573 9.628C131.011 9.27333 131.231 8.79733 131.231 8.2C131.231 7.60267 131.016 7.12667 130.587 6.772C130.167 6.41733 129.499 6.24 128.585 6.24H127.885V5.498L130.909 1.704L131.049 2.096H125.589V1.2H131.889V1.914L128.865 5.708L128.375 5.386H128.753C129.929 5.386 130.806 5.64733 131.385 6.17C131.973 6.69267 132.267 7.36467 132.267 8.186C132.267 8.73667 132.136 9.23133 131.875 9.67C131.613 10.1087 131.217 10.454 130.685 10.706C130.162 10.958 129.504 11.084 128.711 11.084ZM133.437 11V10.286L137.511 6.296C137.884 5.932 138.164 5.61467 138.351 5.344C138.537 5.064 138.663 4.80267 138.729 4.56C138.794 4.31733 138.827 4.08867 138.827 3.874C138.827 3.30467 138.631 2.85667 138.239 2.53C137.856 2.20333 137.287 2.04 136.531 2.04C135.952 2.04 135.439 2.12867 134.991 2.306C134.552 2.48333 134.174 2.75867 133.857 3.132L133.143 2.516C133.525 2.068 134.015 1.72267 134.613 1.48C135.21 1.23733 135.877 1.116 136.615 1.116C137.277 1.116 137.851 1.22333 138.337 1.438C138.822 1.64333 139.195 1.94667 139.457 2.348C139.727 2.74933 139.863 3.22067 139.863 3.762C139.863 4.07933 139.816 4.392 139.723 4.7C139.639 5.008 139.48 5.33467 139.247 5.68C139.023 6.016 138.691 6.39867 138.253 6.828L134.515 10.496L134.235 10.104H140.311V11H133.437ZM143.284 11V1.62L143.732 2.096H140.974V1.2H144.292V11H143.284ZM146.746 7.64V6.772H150.414V7.64H146.746ZM151.634 11V10.286L155.708 6.296C156.081 5.932 156.361 5.61467 156.548 5.344C156.735 5.064 156.861 4.80267 156.926 4.56C156.991 4.31733 157.024 4.08867 157.024 3.874C157.024 3.30467 156.828 2.85667 156.436 2.53C156.053 2.20333 155.484 2.04 154.728 2.04C154.149 2.04 153.636 2.12867 153.188 2.306C152.749 2.48333 152.371 2.75867 152.054 3.132L151.34 2.516C151.723 2.068 152.213 1.72267 152.81 1.48C153.407 1.23733 154.075 1.116 154.812 1.116C155.475 1.116 156.049 1.22333 156.534 1.438C157.019 1.64333 157.393 1.94667 157.654 2.348C157.925 2.74933 158.06 3.22067 158.06 3.762C158.06 4.07933 158.013 4.392 157.92 4.7C157.836 5.008 157.677 5.33467 157.444 5.68C157.22 6.016 156.889 6.39867 156.45 6.828L152.712 10.496L152.432 10.104H158.508V11H151.634ZM161.481 11V1.62L161.929 2.096H159.171V1.2H162.489V11H161.481Z" fill="black"/>
</svg>
