<svg width="30" height="30" viewBox="0 0 30 30" fill="none" xmlns="http://www.w3.org/2000/svg">
<path d="M25.2527 0H4.7473C2.12545 0 0 2.12544 0 4.7473V25.2527C0 27.8746 2.12545 30 4.7473 30H25.2527C27.8746 30 30 27.8746 30 25.2527V4.7473C30 2.12544 27.8746 0 25.2527 0Z" fill="#00AEF7"/>
<path d="M7.70979 15.5763C7.70979 19.3556 10.773 22.4217 14.5552 22.4217C14.9944 22.4217 15.4224 22.3797 15.8392 22.2986C16.4407 22.6622 17.1456 22.8721 17.9009 22.8721C20.1081 22.8721 21.8957 21.0817 21.8957 18.8773C21.8957 18.1024 21.6747 17.3834 21.2943 16.7708C21.3614 16.3819 21.4006 15.9847 21.4006 15.5763C21.4006 11.7969 18.3346 8.73087 14.5552 8.73087C14.1244 8.73087 13.7048 8.77283 13.2935 8.84836C12.6893 8.47909 11.9787 8.26929 11.2206 8.26929C9.0134 8.26929 7.22583 10.0569 7.22583 12.2641C7.22583 13.0334 7.44403 13.7523 7.82169 14.3594C7.75175 14.7538 7.71259 15.1594 7.71259 15.5763H7.70979ZM14.6279 10.7115C16.8351 10.8402 18.1275 11.8109 18.2534 12.7201C18.315 13.3131 17.9205 13.7747 17.2379 13.7747C16.2393 13.7747 16.1385 12.4431 14.4181 12.4431C13.6432 12.4431 12.9886 12.7648 12.9886 13.4642C12.9886 14.9272 18.4968 14.0768 18.4968 17.2939C18.4968 19.1486 17.0114 20.3655 14.7958 20.3655C12.8459 20.3655 10.8877 19.4815 10.8961 17.9597C10.8989 17.5009 11.243 17.0785 11.6962 17.0785C12.8431 17.0785 12.8347 18.785 14.6615 18.785C15.9427 18.785 16.3819 18.0856 16.3819 17.5988C16.3819 15.8392 10.8401 16.919 10.8401 13.6068C10.8401 11.8137 12.3116 10.5772 14.6279 10.7143V10.7115Z" fill="white"/>
</svg>
