<svg width="15" height="15" viewBox="0 0 15 15" fill="none" xmlns="http://www.w3.org/2000/svg">
<path d="M0.709786 7.57626C0.709786 11.3556 3.77302 14.4217 7.55519 14.4217C7.99439 14.4217 8.42239 14.3797 8.83922 14.2986C9.44067 14.6622 10.1456 14.8721 10.9009 14.8721C13.1081 14.8721 14.8957 13.0817 14.8957 10.8773C14.8957 10.1024 14.6747 9.38342 14.2943 8.77078C14.3614 8.38193 14.4006 7.98469 14.4006 7.57626C14.4006 3.79689 11.3346 0.730867 7.55519 0.730867C7.12438 0.730867 6.70476 0.772828 6.29353 0.84836C5.68928 0.479095 4.97871 0.269287 4.2206 0.269287C2.0134 0.269287 0.22583 2.05687 0.22583 4.26407C0.22583 5.03337 0.444034 5.75232 0.821691 6.35937C0.751755 6.75381 0.712586 7.15944 0.712586 7.57626H0.709786ZM7.62791 2.71147C9.83511 2.84016 11.1275 3.81088 11.2534 4.72005C11.315 5.31312 10.9205 5.77469 10.2379 5.77469C9.23925 5.77469 9.13854 4.4431 7.4181 4.4431C6.6432 4.4431 5.9886 4.76481 5.9886 5.46418C5.9886 6.92725 11.4968 6.07682 11.4968 9.2939C11.4968 11.1486 10.0114 12.3655 7.79577 12.3655C5.84593 12.3655 3.88771 11.4815 3.8961 9.9597C3.8989 9.50092 4.24298 9.0785 4.69617 9.0785C5.84313 9.0785 5.83475 10.785 7.66149 10.785C8.94273 10.785 9.38192 10.0856 9.38192 9.59883C9.38192 7.83922 3.84015 8.91905 3.84015 5.60685C3.84015 3.81367 5.31161 2.57719 7.62791 2.71427V2.71147Z" fill="white"/>
</svg>
