<svg width="30" height="30" viewBox="0 0 30 30" fill="none" xmlns="http://www.w3.org/2000/svg">
<path d="M21.6076 0H8.39239C3.7574 0 0 3.7574 0 8.39239V21.6076C0 26.2426 3.7574 30 8.39239 30H21.6076C26.2426 30 30 26.2426 30 21.6076V8.39239C30 3.7574 26.2426 0 21.6076 0Z" fill="#01E311"/>
<path d="M22.4665 10.2557C21.0957 7.83028 18.5053 6.25531 15.6826 6.16579C12.8208 6.07627 9.8779 7.51976 8.37287 10.2781C7.00211 12.793 7.11121 15.8814 8.64981 18.3404C8.4456 19.4621 8.24138 20.5811 8.03437 21.7001C9.23168 21.5043 10.429 21.3085 11.6291 21.1154C12.0599 21.3504 14.9329 22.8499 18.2871 21.6106C18.7067 21.4567 21.949 20.1923 23.1127 16.6311C24.1729 13.3888 22.7099 10.6921 22.4665 10.2585V10.2557ZM21.9378 16.1499C20.9978 19.1628 18.2843 20.265 17.9262 20.4021C14.7902 21.6106 12.0823 19.9573 11.7914 19.7727C11.0612 19.9293 10.3311 20.086 9.59816 20.2398L9.94224 18.0131C8.45119 15.9401 8.25537 13.2014 9.4415 10.9606C10.6864 8.60518 13.1565 7.3687 15.5568 7.41346C17.9346 7.45822 20.1362 8.75624 21.3195 10.7844C21.5293 11.1481 22.7938 13.4028 21.935 16.1471L21.9378 16.1499Z" fill="white"/>
<path d="M13.439 10.4204C13.5285 10.4204 13.6069 10.4764 13.6349 10.5603C13.7831 11.0079 14.3706 12.3758 14.3258 12.5241C14.2699 12.7003 13.5957 13.2179 13.5677 13.4696C13.5425 13.7214 14.0433 14.4236 14.5692 14.9747C15.2853 15.7244 16.4183 16.214 16.5106 16.2559C16.603 16.2979 17.3051 15.2572 17.4506 15.1929C17.5961 15.1285 19.4648 16.1356 19.4648 16.3091C19.4648 16.4825 19.3193 17.0728 18.9752 17.5428C18.7346 17.8701 18.2059 18.0127 17.8143 18.0659C17.8059 18.0659 17.7947 18.0659 17.7863 18.0659C17.4897 18.0183 15.4364 17.7861 13.674 16.0461C12.2389 14.6306 11.8081 13.0221 11.6738 12.3786C11.6738 12.3702 11.671 12.3619 11.671 12.3507C11.6626 12.1353 11.671 11.4974 12.1242 10.9407C12.3005 10.7253 12.6054 10.5211 12.7173 10.4512C12.7453 10.4344 12.776 10.426 12.8096 10.426H13.4418L13.439 10.4204Z" fill="white"/>
</svg>
